<svg xmlns="http://www.w3.org/2000/svg" viewBox="0 0 300 100">
    <polygon fill="#f6f6f6" points="78.259,82.538 48.043,49.917 78.291,17.263 137.304,17.263 145.253,2.167 73.371,2.167 28.348,49.97 73.478,97.666 96.234,97.666 122.731,45.85 83.465,45.85 76.178,58.233 100.348,58.233 87.099,82.529 "/>
    <polygon fill="#FF8F5B" points="129.355,45.85 123.022,58.233 159.026,58.233 146.535,82.569 110.578,82.569 102.858,97.666 156.366,97.666 205.386,2.167 151.693,2.167 143.929,17.263 180.122,17.263 165.383,45.85 "/>
    <polygon fill="#f6f6f6" points="186.746,82.569 205.824,45.819 189.594,45.79 162.99,97.666 227.8,97.666 272.716,49.917 228.121,2.167 212.01,2.167 204.261,17.262 222.987,17.263 253.234,49.917 223.201,82.569 186.746,82.569 "/>
</svg>
