<svg xmlns="http://www.w3.org/2000/svg" viewBox="0 0 512 512">
    <g>
        <path d="M337,120c-30.327,0-55,24.673-55,55c0,30.327,24.673,55,55,55c30.327,0,55-24.673,55-55C392,144.673,367.327,120,337,120z M337,200c-13.785,0-25-11.215-25-25c0-13.785,11.215-25,25-25c13.785,0,25,11.215,25,25C362,188.785,350.785,200,337,200z"/>
        <path d="M150,457v-25.929c14.643-5.947,25-20.318,25-37.071v-10h5.812l20-60h44.507c26.68,16.477,58.087,26,91.681,26 c96.495,0,175-78.505,175-175S433.495,0,337,0c-53.927,0-102.229,24.525-134.356,63h-21.542C171.672,63,164,55.328,164,45.897 C164,20.589,143.411,0,118.103,0h-2.205C90.589,0,70,20.589,70,45.897V124H46.991l-10,70H0v130h69.188l20,60H95v10 c0,16.753,10.357,31.124,25,37.071V457c0,30.327,24.673,55,55,55h337v-30H175C161.215,482,150,470.785,150,457z M337,30 c79.953,0,145,65.047,145,145s-65.047,145-145,145s-145-65.047-145-145S257.047,30,337,30z M100,45.897 C100,37.131,107.131,30,115.897,30h2.205C126.869,30,134,37.131,134,45.897C134,71.87,155.13,93,181.103,93h1.339 C169.403,117.475,162,145.387,162,175c0,6.42,0.358,12.757,1.035,19h-30.026l-10-70H100V45.897z M73.009,154H96.99l5.714,40 h-35.41L73.009,154z M30,294v-70h138.992c7.727,26.45,21.543,50.323,39.823,70H30z M110.812,354l-10-30h68.377l-10,30H110.812z M145,394c0,5.514-4.486,10-10,10c-5.514,0-10-4.486-10-10v-10h20V394z"/>
    </g>
</svg>
